<?xml version="1.0" standalone="no"?>
<!DOCTYPE svg PUBLIC "-//W3C//DTD SVG 20010904//EN"
 "http://www.w3.org/TR/2001/REC-SVG-20010904/DTD/svg10.dtd">
<svg version="1.0" xmlns="http://www.w3.org/2000/svg"
 width="600.000000pt" height="315.000000pt" viewBox="0 0 600.000000 315.000000"
 preserveAspectRatio="xMidYMid meet">

<g transform="translate(0.000000,315.000000) scale(0.100000,-0.100000)"
fill="#000000" stroke="none">
<path d="M1787 2478 c-4 -62 -7 -501 -7 -975 l0 -862 48 21 c86 39 225 35 330
-8 9 -5 12 61 12 310 l0 316 273 0 c291 0 356 -7 535 -56 323 -88 615 -265
838 -509 43 -47 84 -85 91 -85 8 0 31 11 52 24 109 69 245 72 369 10 40 -20
75 -34 79 -31 14 15 -275 321 -402 426 -103 85 -236 169 -327 206 -44 18 -84
37 -90 43 -15 15 -5 64 17 76 63 34 192 122 275 187 395 306 626 676 612 982
l-2 37 -140 0 c-131 0 -140 -1 -140 -19 0 -44 -64 -210 -112 -290 -97 -161
-291 -332 -493 -434 -304 -153 -726 -241 -1216 -254 l-226 -6 -6 279 c-4 153
-7 379 -7 502 l0 222 -178 0 -179 0 -6 -112z"/>
</g>
</svg>
